<?xml version="1.0" encoding="iso-8859-1"?>
<!-- Uploaded to: SVG Repo, www.svgrepo.com, Generator: SVG Repo Mixer Tools -->
<!DOCTYPE svg PUBLIC "-//W3C//DTD SVG 1.1//EN" "http://www.w3.org/Graphics/SVG/1.1/DTD/svg11.dtd">
<svg fill="#000000" height="800px" width="800px" version="1.1" id="Capa_1" xmlns="http://www.w3.org/2000/svg" xmlns:xlink="http://www.w3.org/1999/xlink" 
	 viewBox="0 0 490.831 490.831" xml:space="preserve">
<g>
	<path d="M144.708,313.728l43.398,19.89l10.055,69.263c2.039,14.102,14.149,24.268,27.999,24.26c1.344,0,2.719-0.095,4.095-0.292
		c15.494-2.245,26.229-16.624,23.968-32.109l-12.268-84.527c-1.376-9.518-7.494-17.683-16.236-21.683l-45.08-20.656
		c0.004-0.226,0.068-0.436,0.069-0.664l0.214-53.018c-26.25-38.528-20.557-87.386-17.729-103.269l-56.53-4.918
		c1.043,18.636,0.168,59.191-22.804,89.4l-0.081,20.301l-22.134-27.038l11.609-6.324c18.233-26.88,18.043-63.243,17.072-77.76
		l-19.543-1.701c-7.779-0.672-14.75,4.743-16.031,12.443l-3.98,23.956l-38.104,20.762c-6.357,3.462-10.83,9.573-12.222,16.671
		c-1.375,7.099,0.475,14.442,5.06,20.039l56.362,68.835c4.789,5.866,11.762,8.901,18.797,8.901c1.211,0,2.388-0.429,3.592-0.61
		c0.175,1.221,0.281,2.455,0.545,3.645c-0.029,1.036-0.145,2.051-0.058,3.107l7.13,87.04L75.02,454.767
		c-2.973,15.359,7.066,30.229,22.418,33.201c1.834,0.348,3.636,0.522,5.423,0.522c13.296,0,25.169-9.414,27.777-22.956
		l17.597-90.914c0.489-2.537,0.632-5.122,0.427-7.699l-4.348-53.071C144.448,313.814,144.574,313.763,144.708,313.728z"/>
	<path d="M191.019,200.066l24.992,19.674c4.3,3.383,9.596,5.202,15.019,5.202c0.855,0,1.708-0.047,2.562-0.135l63.844-6.773
		L276.23,394.011c-0.807,6.656,3.936,12.703,10.593,13.509c0.489,0.055,0.98,0.087,1.47,0.087c6.056,0,11.305-4.522,12.031-10.688
		l21.985-182.456c9.993-3.86,16.611-13.968,15.421-25.125c-0.768-7.267-4.752-13.39-10.31-17.29l1.249-10.372l35.668,11.899
		c19.145,6.388,39.43,8.617,59.491,6.553l33.439-3.454c5.295-0.545,9.501-4.68,10.132-9.953l8.443-69.95
		c0.411-3.431-0.76-6.87-3.178-9.336c-2.435-2.466-5.85-3.7-9.28-3.343l-14.198,1.462c-29.011,2.997-58.242-3.027-83.727-17.239
		l-23.931-13.36l0.596-4.939c0.806-6.656-3.938-12.703-10.593-13.51c-6.593-0.75-12.728,3.937-13.502,10.601l-14.635,121.454
		l-65.109,6.906l-27.841-21.919l5.581-20.333c1.17-4.278,0.378-8.853-2.15-12.49c-2.53-3.644-6.545-5.969-10.973-6.348l-23.5-2.044
		C177.335,123.587,171.36,166.108,191.019,200.066z"/>
	<path d="M166.052,94.29c24.646-8.783,37.484-35.858,28.727-60.481c-8.774-24.622-35.857-37.485-60.487-28.709
		c-24.633,8.774-37.47,35.841-28.712,60.472C114.354,90.202,141.437,103.056,166.052,94.29z"/>
	<path d="M484.459,240.743c-3.857-1.549-8.268-0.601-11.144,2.386l-55.999,58.219c-2.228,2.333-4.869,4.253-7.778,5.677
		l-53.152,26.085c-6.561,3.218-11.589,8.894-13.991,15.786l-16.284,46.782c-2.734,7.85-8.838,14.062-16.647,16.924l-126.067,46.25
		c-2.292,0.847-4.269,2.388-5.645,4.412l-11.462,16.9c-1.043,1.544-1.138,3.535-0.268,5.179c0.868,1.643,2.576,2.672,4.441,2.672
		h293.793c14.67,0,26.576-11.898,26.576-26.576V250.19C490.831,246.031,488.302,242.301,484.459,240.743z"/>
</g>
</svg>